<svg width="60" height="58" viewBox="0 0 64 61" fill="none" xmlns="http://www.w3.org/2000/svg">
<path fill-rule="evenodd" clip-rule="evenodd" d="M4.28381 57C6.22473 43.4308 17.8944 33 32.0003 33C46.1061 33 57.7758 43.4308 59.7167 57H4.28381ZM3.00026 61C1.3434 61 -0.0144716 59.6526 0.138772 58.0028C1.64986 41.7351 15.3378 29 32.0003 29C48.6627 29 62.3507 41.7351 63.8617 58.0028C64.015 59.6526 62.6571 61 61.0003 61H3.00026Z" fill="#2A3950"/>
<path fill-rule="evenodd" clip-rule="evenodd" d="M32 24C37.5228 24 42 19.5228 42 14C42 8.47715 37.5228 4 32 4C26.4772 4 22 8.47715 22 14C22 19.5228 26.4772 24 32 24ZM32 28C39.732 28 46 21.732 46 14C46 6.26801 39.732 0 32 0C24.268 0 18 6.26801 18 14C18 21.732 24.268 28 32 28Z" fill="#2A3950"/>
</svg>
