<svg width="64" height="64" viewBox="0 0 64 64" fill="none" xmlns="http://www.w3.org/2000/svg">
<g clip-path="url(#clip0_108_1970)">
<path d="M23.5798 20.22C23.5798 22.07 22.3998 23.59 20.2098 23.59C18.1898 23.59 16.8398 22.08 16.8398 20.39C16.8398 18.54 18.1898 16.86 20.2098 16.86C22.2298 16.86 23.5798 18.37 23.5798 20.23V20.22Z" fill="#2A3950"/>
<path d="M23.5796 25.27H16.8496V47.15H23.5796V25.27Z" fill="#2A3950"/>
<path d="M39.7395 25.6C36.2095 25.6 34.1895 27.62 33.3395 28.97H33.1695L32.8295 26.11H26.7695C26.7695 27.96 26.9395 30.15 26.9395 32.67V47.14H33.6695V35.19C33.6695 34.52 33.6695 34.01 33.8395 33.51C34.3395 32.33 35.1895 30.82 37.0395 30.82C39.3995 30.82 40.4095 32.84 40.4095 35.53V47.14H47.1395V34.68C47.1395 28.45 43.9395 25.59 39.7295 25.59L39.7395 25.6Z" fill="#2A3950"/>
<path d="M49.39 2H14.61C7.64569 2 2 7.64569 2 14.61V49.39C2 56.3543 7.64569 62 14.61 62H49.39C56.3543 62 62 56.3543 62 49.39V14.61C62 7.64569 56.3543 2 49.39 2Z" stroke="#2A3950" stroke-width="4" stroke-linecap="round" stroke-linejoin="round"/>
</g>
<defs>
<clipPath id="clip0_108_1970">
<rect width="64" height="64" fill="white"/>
</clipPath>
</defs>
</svg>
