<svg width="64" height="64" viewBox="0 0 64 64" fill="none" xmlns="http://www.w3.org/2000/svg">
<path fill-rule="evenodd" clip-rule="evenodd" d="M56 4H8C5.79086 4 4 5.79086 4 8V56C4 58.2091 5.79086 60 8 60H56C58.2091 60 60 58.2091 60 56V8C60 5.79086 58.2091 4 56 4ZM8 0C3.58172 0 0 3.58172 0 8V56C0 60.4183 3.58172 64 8 64H56C60.4183 64 64 60.4183 64 56V8C64 3.58172 60.4183 0 56 0H8Z" fill="#2A3950"/>
<path fill-rule="evenodd" clip-rule="evenodd" d="M12 18C12 16.8954 12.8954 16 14 16H50C51.1046 16 52 16.8954 52 18C52 19.1046 51.1046 20 50 20H14C12.8954 20 12 19.1046 12 18Z" fill="#2A3950"/>
<path fill-rule="evenodd" clip-rule="evenodd" d="M12 32C12 30.8954 12.8954 30 14 30H50C51.1046 30 52 30.8954 52 32C52 33.1046 51.1046 34 50 34H14C12.8954 34 12 33.1046 12 32Z" fill="#2A3950"/>
<path fill-rule="evenodd" clip-rule="evenodd" d="M12 46C12 44.8954 12.5596 44 13.25 44H35.75C36.4404 44 37 44.8954 37 46C37 47.1046 36.4404 48 35.75 48H13.25C12.5596 48 12 47.1046 12 46Z" fill="#2A3950"/>
</svg>
